<svg xmlns="http://www.w3.org/2000/svg" width="24" height="24"><rect id="backgroundrect" width="100%" height="100%" x="0" y="0" fill="none" stroke="none"/><g class="currentLayer" style=""><title>Layer 1</title><path d="M12,0 A12,12 0 1 0 24,12 A12.013,12.013 0 0 0 12,0 zm3.222,7 H8.778 A19.614,19.614 0 0 1 12,2.412 A19.57,19.57 0 0 1 15.222,7 zm0.8,2 a10.211,10.211 0 0 1 0.47600000000000003,3 a10.211,10.211 0 0 1 -0.47600000000000003,3 H7.976 A10.211,10.211 0 0 1 7.5,12 a10.211,10.211 0 0 1 0.47600000000000003,-3 zM9.4,2.356 A19.676000000000002,19.676000000000002 0 0 0 6.574,7 H3.353 A10.031,10.031 0 0 1 9.4,2.356 zM2,12 a9.986,9.986 0 0 1 0.461,-3 H5.9 a12.016,12.016 0 0 0 -0.4,3 a12.016,12.016 0 0 0 0.4,3 H2.461 A9.986,9.986 0 0 1 2,12 zm1.353,5 H6.574 A19.676000000000002,19.676000000000002 0 0 0 9.4,21.644 A10.031,10.031 0 0 1 3.353,17 zm5.425,0 h6.444 A19.614,19.614 0 0 1 12,21.588 A19.57,19.57 0 0 1 8.778,17 zm5.827,4.644 A19.676000000000002,19.676000000000002 0 0 0 17.426,17 h3.221 A10.031,10.031 0 0 1 14.605,21.644 zM22,12 a9.986,9.986 0 0 1 -0.461,3 H18.1 a12.016,12.016 0 0 0 0.4,-3 a12.016,12.016 0 0 0 -0.4,-3 h3.4370000000000003 A9.986,9.986 0 0 1 22,12 zM17.426,7 a19.676000000000002,19.676000000000002 0 0 0 -2.821,-4.644 A10.031,10.031 0 0 1 20.647,7 z" id="svg_1" class="selected" fill="#ffffff" fill-opacity="1"/></g></svg>