<svg xmlns="http://www.w3.org/2000/svg" data-name="Layer 1" width="24" height="24"><rect id="backgroundrect" width="100%" height="100%" x="0" y="0" fill="none" stroke="none"/><g class="currentLayer" style=""><title>Layer 1</title><path d="M23,22H5a3,3,0,0,1-3-3V1A1,1,0,0,0,0,1V19a5.006,5.006,0,0,0,5,5H23a1,1,0,0,0,0-2Z" id="svg_1" class="" fill="#ffffff" fill-opacity="1"/><path d="M6,20a1,1,0,0,0,1-1V12a1,1,0,0,0-2,0v7A1,1,0,0,0,6,20Z" id="svg_2" class="" fill="#ffffff" fill-opacity="1"/><path d="M9.915611818432808,10.253164529800415 v9 a1,1 0 0 0 2,0 V10.253164529800415 a1,1 0 0 0 -2,0 z" id="svg_3" class="" fill="#ffffff" fill-opacity="1"/><path d="M14.915611818432808,13.253164529800415 v6 a1,1 0 0 0 2,0 V13.253164529800415 a1,1 0 0 0 -2,0 z" id="svg_4" class="" fill="#ffffff" fill-opacity="1"/><path d="M19.915611818432808,9.253164529800415 V19.253164529800415 a1,1 0 0 0 2,0 V9.253164529800415 a1,1 0 0 0 -2,0 z" id="svg_5" class="" fill="#ffffff" fill-opacity="1"/><path d="M6,9a1,1,0,0,0,.707-.293l3.586-3.586a1.025,1.025,0,0,1,1.414,0l2.172,2.172a3,3,0,0,0,4.242,0l5.586-5.586A1,1,0,0,0,22.293.293L16.707,5.878a1,1,0,0,1-1.414,0L13.121,3.707a3,3,0,0,0-4.242,0L5.293,7.293A1,1,0,0,0,6,9Z" id="svg_6" class="" fill="#ffffff" fill-opacity="1"/></g></svg>